# xmcd
#
# Track frame offsets: 
#        150
#        19965
#        38985
#        59827
#        77992
#        103465
#        122750
#        145787
#        169257
#        185430
#        215972
#        237490
#
# Disc length: 3388 seconds
#
# Revision: 2
# Processed by: cddbd v1.5.2PL0 Copyright (c) Steve Scherf et al.
# Submitted via: ExactAudioCopyFreeDBPlugin 1.0
#
DISCID=c00d3a0c
DTITLE=Neal Young and The Vipers - One's Enough
DYEAR=1998
DGENRE=Blues
TTITLE0=Your Lying Ways
TTITLE1=Why Did the Bottle Choose Me?
TTITLE2=Until You Were Gone
TTITLE3=One's Enough
TTITLE4=Fallen Flower
TTITLE5=Linda Lu
TTITLE6=Tell Me What's the Reason
TTITLE7=The Hunt
TTITLE8=Better Safe Than Sorry
TTITLE9=Tramp
TTITLE10=Guitar Slinger
TTITLE11=The Hump
EXTD=
EXTT0=
EXTT1=
EXTT2=
EXTT3=
EXTT4=
EXTT5=
EXTT6=
EXTT7=
EXTT8=
EXTT9=
EXTT10=
EXTT11=
PLAYORDER=
